<?xml version="1.0" encoding="utf-8"?>
<!-- Generator: Adobe Illustrator 26.0.2, SVG Export Plug-In . SVG Version: 6.00 Build 0)  -->
<svg version="1.1" id="Layer_1" xmlns="http://www.w3.org/2000/svg" xmlns:xlink="http://www.w3.org/1999/xlink" x="0px" y="0px"
	 viewBox="0 0 430.5 148" style="enable-background:new 0 0 430.5 148;" xml:space="preserve">
<style type="text/css">
	.st0{clip-path:url(#SVGID_00000048483386783944988680000010051535969548897955_);}
	.st1{fill:#87D1E6;}
	.st2{clip-path:url(#SVGID_00000078747491732679216600000016815253765363710127_);}
	.st3{fill:#B799FF;}
	.st4{fill:#FF6E42;}
	.st5{clip-path:url(#SVGID_00000025432513320399616980000005200233821427698083_);}
	.st6{fill:#E8E9F3;}
	.st7{clip-path:url(#SVGID_00000002367346838241645780000016991877863373060519_);}
	.st8{clip-path:url(#SVGID_00000098942011185394659660000008891305514143211949_);}
	.st9{clip-path:url(#SVGID_00000064334860020192223590000008168517679109053573_);}
	.st10{fill:#FDDBD1;}
	.st11{fill:#FFCE33;}
	.st12{fill:#9867F9;}
	.st13{fill:#FFFFFF;}
</style>
<g>
	<defs>
		<rect id="SVGID_1_" x="4" y="2.6" width="68.7" height="142.8"/>
	</defs>
	<clipPath id="SVGID_00000145057430034610723920000013449700437985101493_">
		<use xlink:href="#SVGID_1_"  style="overflow:visible;"/>
	</clipPath>
	<g style="clip-path:url(#SVGID_00000145057430034610723920000013449700437985101493_);">
		<g>
			<rect x="4" y="2.6" class="st1" width="68.6" height="4.2"/>
		</g>
		<g>
			<rect x="4" y="11.9" class="st1" width="68.6" height="4.2"/>
		</g>
		<g>
			<rect x="4" y="21.1" class="st1" width="68.6" height="4.2"/>
		</g>
		<g>
			<rect x="4" y="30.3" class="st1" width="68.6" height="4.2"/>
		</g>
		<g>
			<rect x="4" y="39.6" class="st1" width="68.6" height="4.2"/>
		</g>
		<g>
			<rect x="4" y="48.8" class="st1" width="68.6" height="4.2"/>
		</g>
		<g>
			<rect x="4" y="58.1" class="st1" width="68.6" height="4.2"/>
		</g>
		<g>
			<rect x="4" y="67.3" class="st1" width="68.6" height="4.2"/>
		</g>
		<g>
			<rect x="4" y="76.5" class="st1" width="68.6" height="4.2"/>
		</g>
		<g>
			<rect x="4" y="85.8" class="st1" width="68.6" height="4.2"/>
		</g>
		<g>
			<rect x="4" y="95" class="st1" width="68.6" height="4.2"/>
		</g>
		<g>
			<rect x="4" y="104.2" class="st1" width="68.6" height="4.2"/>
		</g>
		<g>
			<rect x="4" y="113.5" class="st1" width="68.6" height="4.2"/>
		</g>
		<g>
			<rect x="4" y="122.7" class="st1" width="68.6" height="4.2"/>
		</g>
		<g>
			<rect x="4" y="132" class="st1" width="68.6" height="4.2"/>
		</g>
		<g>
			<rect x="4" y="141.2" class="st1" width="68.6" height="4.2"/>
		</g>
	</g>
</g>
<g>
	<defs>
		<path id="SVGID_00000158021157083399571680000014438085555152032686_" d="M75.8,2.5v142.9c39.5,0,71.5-32,71.5-71.5
			C147.3,34.5,115.3,2.5,75.8,2.5z"/>
	</defs>
	<clipPath id="SVGID_00000026145827928644130650000001421347785011086760_">
		<use xlink:href="#SVGID_00000158021157083399571680000014438085555152032686_"  style="overflow:visible;"/>
	</clipPath>
	<g style="clip-path:url(#SVGID_00000026145827928644130650000001421347785011086760_);">
		<path class="st3" d="M75.8,5.5c37.7,0,68.5,30.7,68.5,68.5s-30.7,68.5-68.5,68.5S7.4,111.7,7.4,74S38.1,5.5,75.8,5.5 M75.8,2.5
			C36.4,2.5,4.4,34.5,4.4,74s32,71.5,71.5,71.5s71.5-32,71.5-71.5S115.3,2.5,75.8,2.5L75.8,2.5z"/>
		<path class="st3" d="M75.8,14.3c32.9,0,59.7,26.8,59.7,59.7s-26.8,59.7-59.7,59.7S16.1,106.9,16.1,74S42.9,14.3,75.8,14.3
			 M75.8,11.3c-34.7,0-62.7,28.1-62.7,62.7s28.1,62.7,62.7,62.7s62.7-28.1,62.7-62.7S110.5,11.3,75.8,11.3L75.8,11.3z"/>
		<path class="st3" d="M75.8,23.3c28,0,50.7,22.8,50.7,50.7s-22.8,50.7-50.7,50.7S25.1,102,25.1,74S47.8,23.3,75.8,23.3 M75.8,20.3
			c-29.7,0-53.7,24.1-53.7,53.7s24.1,53.7,53.7,53.7s53.7-24.1,53.7-53.7S105.5,20.3,75.8,20.3L75.8,20.3z"/>
		<path class="st3" d="M75.8,32.1c23.1,0,41.9,18.8,41.9,41.9s-18.8,41.9-41.9,41.9S33.9,97.1,33.9,74S52.7,32.1,75.8,32.1
			 M75.8,29.1C51,29.1,30.9,49.2,30.9,74s20.1,44.9,44.9,44.9s44.9-20.1,44.9-44.9S100.6,29.1,75.8,29.1L75.8,29.1z"/>
		<path class="st3" d="M75.8,41.1c18.2,0,32.9,14.8,32.9,32.9S94,106.9,75.8,106.9S42.9,92.2,42.9,74S57.7,41.1,75.8,41.1
			 M75.8,38.1C56,38.1,39.9,54.1,39.9,74s16.1,35.9,35.9,35.9s35.9-16.1,35.9-35.9S95.7,38.1,75.8,38.1L75.8,38.1z"/>
		<path class="st3" d="M75.8,50c13.2,0,24,10.8,24,24s-10.8,24-24,24s-24-10.8-24-24S62.6,50,75.8,50 M75.8,47
			c-14.9,0-27,12.1-27,27s12.1,27,27,27s27-12.1,27-27S90.7,47,75.8,47L75.8,47z"/>
		<path class="st3" d="M75.8,59c8.3,0,15,6.7,15,15s-6.7,15-15,15c-8.3,0-15-6.7-15-15S67.6,59,75.8,59 M75.8,56
			c-9.9,0-18,8.1-18,18s8.1,18,18,18c9.9,0,18-8.1,18-18S85.8,56,75.8,56L75.8,56z"/>
		<path class="st3" d="M75.8,68.6c3,0,5.4,2.4,5.4,5.4s-2.4,5.4-5.4,5.4S70.4,77,70.4,74S72.9,68.6,75.8,68.6 M75.8,65.6
			c-4.6,0-8.4,3.8-8.4,8.4s3.8,8.4,8.4,8.4s8.4-3.8,8.4-8.4S80.5,65.6,75.8,65.6L75.8,65.6z"/>
	</g>
</g>
<polyline class="st4" points="72.6,2.6 4,2.6 72.6,71.3 "/>
<polyline class="st4" points="72.6,145.5 4,145.5 72.6,76.8 "/>
<g>
	<g>
		<defs>
			<polygon id="SVGID_00000173160916489196159330000011615150713813422753_" points="214.6,74 286,2.6 214.6,2.6 			"/>
		</defs>
		<clipPath id="SVGID_00000106837776104107317210000017051726653142801834_">
			<use xlink:href="#SVGID_00000173160916489196159330000011615150713813422753_"  style="overflow:visible;"/>
		</clipPath>
		<g style="clip-path:url(#SVGID_00000106837776104107317210000017051726653142801834_);">
			<path class="st6" d="M214.6,5.5C252.3,5.5,283,36.3,283,74s-30.7,68.5-68.5,68.5s-68.5-30.7-68.5-68.5S176.8,5.5,214.6,5.5
				 M214.6,2.5c-39.5,0-71.5,32-71.5,71.5s32,71.5,71.5,71.5S286,113.5,286,74S254.1,2.5,214.6,2.5L214.6,2.5z"/>
			<path class="st6" d="M214.6,14.3c32.9,0,59.7,26.8,59.7,59.7s-26.8,59.7-59.7,59.7s-59.7-26.8-59.7-59.7S181.6,14.3,214.6,14.3
				 M214.6,11.3c-34.7,0-62.7,28.1-62.7,62.7s28.1,62.7,62.7,62.7s62.7-28.1,62.7-62.7S249.2,11.3,214.6,11.3L214.6,11.3z"/>
			<path class="st6" d="M214.6,23.3c28,0,50.7,22.8,50.7,50.7s-22.8,50.7-50.7,50.7S163.9,102,163.9,74S186.6,23.3,214.6,23.3
				 M214.6,20.3c-29.7,0-53.7,24.1-53.7,53.7s24.1,53.7,53.7,53.7s53.7-24.1,53.7-53.7S244.3,20.3,214.6,20.3L214.6,20.3z"/>
			<path class="st6" d="M214.6,32.1c23.1,0,41.9,18.8,41.9,41.9s-18.8,41.9-41.9,41.9S172.7,97.1,172.7,74S191.5,32.1,214.6,32.1
				 M214.6,29.1c-24.8,0-44.9,20.1-44.9,44.9s20.1,44.9,44.9,44.9c24.8,0,44.9-20.1,44.9-44.9S239.4,29.1,214.6,29.1L214.6,29.1z"/>
			<path class="st6" d="M214.6,41.1c18.2,0,32.9,14.8,32.9,32.9s-14.8,32.9-32.9,32.9S181.6,92.2,181.6,74S196.4,41.1,214.6,41.1
				 M214.6,38.1c-19.9,0-35.9,16.1-35.9,35.9s16.1,35.9,35.9,35.9s35.9-16.1,35.9-35.9S234.4,38.1,214.6,38.1L214.6,38.1z"/>
			<path class="st6" d="M214.6,50c13.2,0,24,10.8,24,24c0,13.2-10.8,24-24,24c-13.2,0-24-10.8-24-24C190.6,60.8,201.4,50,214.6,50
				 M214.6,47c-14.9,0-27,12.1-27,27s12.1,27,27,27c14.9,0,27-12.1,27-27S229.5,47,214.6,47L214.6,47z"/>
			<path class="st6" d="M214.6,59c8.3,0,15,6.7,15,15s-6.7,15-15,15c-8.3,0-15-6.7-15-15S206.3,59,214.6,59 M214.6,56
				c-9.9,0-18,8.1-18,18s8.1,18,18,18c9.9,0,18-8.1,18-18S224.5,56,214.6,56L214.6,56z"/>
			<path class="st6" d="M214.6,68.6c3,0,5.4,2.4,5.4,5.4s-2.4,5.4-5.4,5.4c-3,0-5.4-2.4-5.4-5.4S211.6,68.6,214.6,68.6 M214.6,65.6
				c-4.6,0-8.4,3.8-8.4,8.4s3.8,8.4,8.4,8.4c4.6,0,8.4-3.8,8.4-8.4S219.2,65.6,214.6,65.6L214.6,65.6z"/>
		</g>
	</g>
	<g>
		<defs>
			<polygon id="SVGID_00000047767495255207971490000006316852213143175607_" points="212.3,74 140.9,145.5 212.3,145.5 			"/>
		</defs>
		<clipPath id="SVGID_00000150812044842879892740000002309664275423146883_">
			<use xlink:href="#SVGID_00000047767495255207971490000006316852213143175607_"  style="overflow:visible;"/>
		</clipPath>
		<g style="clip-path:url(#SVGID_00000150812044842879892740000002309664275423146883_);">
			<path class="st6" d="M212.3,5.6c37.7,0,68.5,30.7,68.5,68.5s-30.7,68.5-68.5,68.5s-68.5-30.7-68.5-68.5S174.5,5.6,212.3,5.6
				 M212.3,2.6c-39.5,0-71.5,32-71.5,71.5s32,71.5,71.5,71.5s71.5-32,71.5-71.5S251.7,2.6,212.3,2.6L212.3,2.6z"/>
			<path class="st6" d="M212.3,14.3c32.9,0,59.7,26.8,59.7,59.7s-26.8,59.7-59.7,59.7S152.5,107,152.5,74S179.3,14.3,212.3,14.3
				 M212.3,11.3c-34.7,0-62.7,28.1-62.7,62.7s28.1,62.7,62.7,62.7S275,108.7,275,74S246.9,11.3,212.3,11.3L212.3,11.3z"/>
			<path class="st6" d="M212.3,23.3c28,0,50.7,22.8,50.7,50.7s-22.8,50.7-50.7,50.7S161.5,102,161.5,74S184.3,23.3,212.3,23.3
				 M212.3,20.3c-29.7,0-53.7,24.1-53.7,53.7s24.1,53.7,53.7,53.7S266,103.7,266,74S242,20.3,212.3,20.3L212.3,20.3z"/>
			<path class="st6" d="M212.3,32.2c23.1,0,41.9,18.8,41.9,41.9s-18.8,41.9-41.9,41.9S170.4,97.1,170.4,74S189.2,32.2,212.3,32.2
				 M212.3,29.2c-24.8,0-44.9,20.1-44.9,44.9s20.1,44.9,44.9,44.9c24.8,0,44.9-20.1,44.9-44.9S237.1,29.2,212.3,29.2L212.3,29.2z"/>
			<path class="st6" d="M212.3,41.1c18.2,0,32.9,14.8,32.9,32.9S230.4,107,212.3,107S179.3,92.2,179.3,74S194.1,41.1,212.3,41.1
				 M212.3,38.1c-19.9,0-35.9,16.1-35.9,35.9s16.1,35.9,35.9,35.9s35.9-16.1,35.9-35.9S232.1,38.1,212.3,38.1L212.3,38.1z"/>
			<path class="st6" d="M212.3,50c13.2,0,24,10.8,24,24s-10.8,24-24,24s-24-10.8-24-24S199,50,212.3,50 M212.3,47
				c-14.9,0-27,12.1-27,27s12.1,27,27,27c14.9,0,27-12.1,27-27S227.2,47,212.3,47L212.3,47z"/>
			<path class="st6" d="M212.3,59c8.3,0,15,6.7,15,15s-6.7,15-15,15s-15-6.7-15-15S204,59,212.3,59 M212.3,56c-9.9,0-18,8.1-18,18
				c0,9.9,8.1,18,18,18c9.9,0,18-8.1,18-18C230.3,64.1,222.2,56,212.3,56L212.3,56z"/>
			<path class="st6" d="M212.3,68.6c3,0,5.4,2.4,5.4,5.4s-2.4,5.4-5.4,5.4s-5.4-2.4-5.4-5.4S209.3,68.6,212.3,68.6 M212.3,65.6
				c-4.6,0-8.4,3.8-8.4,8.4s3.8,8.4,8.4,8.4c4.6,0,8.4-3.8,8.4-8.4S216.9,65.6,212.3,65.6L212.3,65.6z"/>
		</g>
	</g>
</g>
<g>
	<g>
		<defs>
			<polygon id="SVGID_00000124125706546651051150000010760398203946285197_" points="332.6,74 404,2.6 332.6,2.6 			"/>
		</defs>
		<clipPath id="SVGID_00000151528642025828358060000013598333026488883369_">
			<use xlink:href="#SVGID_00000124125706546651051150000010760398203946285197_"  style="overflow:visible;"/>
		</clipPath>
		<g style="clip-path:url(#SVGID_00000151528642025828358060000013598333026488883369_);">
			<path class="st6" d="M332.6,5.5C370.3,5.5,401,36.3,401,74s-30.7,68.5-68.5,68.5s-68.5-30.7-68.5-68.5S294.8,5.5,332.6,5.5
				 M332.6,2.5c-39.5,0-71.5,32-71.5,71.5s32,71.5,71.5,71.5S404,113.5,404,74S372,2.5,332.6,2.5L332.6,2.5z"/>
			<path class="st6" d="M332.6,14.3c32.9,0,59.7,26.8,59.7,59.7s-26.8,59.7-59.7,59.7s-59.7-26.8-59.7-59.7S299.6,14.3,332.6,14.3
				 M332.6,11.3c-34.7,0-62.7,28.1-62.7,62.7s28.1,62.7,62.7,62.7s62.7-28.1,62.7-62.7S367.2,11.3,332.6,11.3L332.6,11.3z"/>
			<path class="st6" d="M332.6,23.3c28,0,50.7,22.8,50.7,50.7s-22.8,50.7-50.7,50.7S281.8,102,281.8,74S304.6,23.3,332.6,23.3
				 M332.6,20.3c-29.7,0-53.7,24.1-53.7,53.7s24.1,53.7,53.7,53.7c29.7,0,53.7-24.1,53.7-53.7S362.3,20.3,332.6,20.3L332.6,20.3z"/>
			<path class="st6" d="M332.6,32.1c23.1,0,41.9,18.8,41.9,41.9s-18.8,41.9-41.9,41.9c-23.1,0-41.9-18.8-41.9-41.9
				S309.5,32.1,332.6,32.1 M332.6,29.1c-24.8,0-44.9,20.1-44.9,44.9s20.1,44.9,44.9,44.9c24.8,0,44.9-20.1,44.9-44.9
				S357.4,29.1,332.6,29.1L332.6,29.1z"/>
			<path class="st6" d="M332.6,41.1c18.2,0,32.9,14.8,32.9,32.9s-14.8,32.9-32.9,32.9S299.6,92.2,299.6,74S314.4,41.1,332.6,41.1
				 M332.6,38.1c-19.9,0-35.9,16.1-35.9,35.9s16.1,35.9,35.9,35.9c19.9,0,35.9-16.1,35.9-35.9S352.4,38.1,332.6,38.1L332.6,38.1z"/>
			<path class="st6" d="M332.6,50c13.2,0,24,10.8,24,24c0,13.2-10.8,24-24,24s-24-10.8-24-24C308.6,60.8,319.3,50,332.6,50
				 M332.6,47c-14.9,0-27,12.1-27,27s12.1,27,27,27s27-12.1,27-27S347.5,47,332.6,47L332.6,47z"/>
			<path class="st6" d="M332.6,59c8.3,0,15,6.7,15,15s-6.7,15-15,15s-15-6.7-15-15S324.3,59,332.6,59 M332.6,56c-9.9,0-18,8.1-18,18
				s8.1,18,18,18s18-8.1,18-18S342.5,56,332.6,56L332.6,56z"/>
			<path class="st6" d="M332.6,68.6c3,0,5.4,2.4,5.4,5.4s-2.4,5.4-5.4,5.4s-5.4-2.4-5.4-5.4S329.6,68.6,332.6,68.6 M332.6,65.6
				c-4.6,0-8.4,3.8-8.4,8.4s3.8,8.4,8.4,8.4s8.4-3.8,8.4-8.4S337.2,65.6,332.6,65.6L332.6,65.6z"/>
		</g>
	</g>
	<g>
		<defs>
			<polygon id="SVGID_00000145748672344903844180000017905557465856039833_" points="330.3,74 258.9,145.5 330.3,145.5 			"/>
		</defs>
		<clipPath id="SVGID_00000178163007860218820650000010748215288298746535_">
			<use xlink:href="#SVGID_00000145748672344903844180000017905557465856039833_"  style="overflow:visible;"/>
		</clipPath>
		<g style="clip-path:url(#SVGID_00000178163007860218820650000010748215288298746535_);">
			<path class="st6" d="M330.3,5.6c37.7,0,68.5,30.7,68.5,68.5s-30.7,68.5-68.5,68.5s-68.5-30.7-68.5-68.5S292.5,5.6,330.3,5.6
				 M330.3,2.6c-39.5,0-71.5,32-71.5,71.5s32,71.5,71.5,71.5s71.5-32,71.5-71.5S369.7,2.6,330.3,2.6L330.3,2.6z"/>
			<path class="st6" d="M330.3,14.3c32.9,0,59.7,26.8,59.7,59.7s-26.8,59.7-59.7,59.7S270.5,107,270.5,74S297.3,14.3,330.3,14.3
				 M330.3,11.3c-34.7,0-62.7,28.1-62.7,62.7s28.1,62.7,62.7,62.7S393,108.7,393,74S364.9,11.3,330.3,11.3L330.3,11.3z"/>
			<path class="st6" d="M330.3,23.3c28,0,50.7,22.8,50.7,50.7s-22.8,50.7-50.7,50.7S279.5,102,279.5,74S302.3,23.3,330.3,23.3
				 M330.3,20.3c-29.7,0-53.7,24.1-53.7,53.7s24.1,53.7,53.7,53.7c29.7,0,53.7-24.1,53.7-53.7S359.9,20.3,330.3,20.3L330.3,20.3z"/>
			<path class="st6" d="M330.3,32.2c23.1,0,41.9,18.8,41.9,41.9s-18.8,41.9-41.9,41.9c-23.1,0-41.9-18.8-41.9-41.9
				S307.2,32.2,330.3,32.2 M330.3,29.2c-24.8,0-44.9,20.1-44.9,44.9s20.1,44.9,44.9,44.9c24.8,0,44.9-20.1,44.9-44.9
				S355.1,29.2,330.3,29.2L330.3,29.2z"/>
			<path class="st6" d="M330.3,41.1c18.2,0,32.9,14.8,32.9,32.9S348.4,107,330.3,107S297.3,92.2,297.3,74S312.1,41.1,330.3,41.1
				 M330.3,38.1c-19.9,0-35.9,16.1-35.9,35.9s16.1,35.9,35.9,35.9c19.9,0,35.9-16.1,35.9-35.9S350.1,38.1,330.3,38.1L330.3,38.1z"/>
			<path class="st6" d="M330.3,50c13.2,0,24,10.8,24,24s-10.8,24-24,24s-24-10.8-24-24S317,50,330.3,50 M330.3,47
				c-14.9,0-27,12.1-27,27s12.1,27,27,27s27-12.1,27-27S345.2,47,330.3,47L330.3,47z"/>
			<path class="st6" d="M330.3,59c8.3,0,15,6.7,15,15s-6.7,15-15,15c-8.3,0-15-6.7-15-15S322,59,330.3,59 M330.3,56
				c-9.9,0-18,8.1-18,18c0,9.9,8.1,18,18,18s18-8.1,18-18C348.3,64.1,340.2,56,330.3,56L330.3,56z"/>
			<path class="st6" d="M330.3,68.6c3,0,5.4,2.4,5.4,5.4s-2.4,5.4-5.4,5.4c-3,0-5.4-2.4-5.4-5.4S327.3,68.6,330.3,68.6 M330.3,65.6
				c-4.6,0-8.4,3.8-8.4,8.4s3.8,8.4,8.4,8.4s8.4-3.8,8.4-8.4S334.9,65.6,330.3,65.6L330.3,65.6z"/>
		</g>
	</g>
</g>
<path class="st10" d="M330.3,2.6L330.3,2.6c-29.9,0-54.1,24.2-54.1,54.1s24.2,54.1,54.1,54.1h0V2.6z"/>
<g>
	<path class="st11" d="M212.3,2.6L212.3,2.6c-29.9,0-54.1,24.2-54.1,54.1s24.2,54.1,54.1,54.1h0V2.6z"/>
</g>
<g>
	<path class="st12" d="M214.6,145.4L214.6,145.4c29.9,0,54.1-24.2,54.1-54.1s-24.2-54.1-54.1-54.1h0V145.4z"/>
</g>
<g>
	<path class="st1" d="M332.6,145.4L332.6,145.4c29.9,0,54.1-24.2,54.1-54.1s-24.2-54.1-54.1-54.1h0V145.4z"/>
</g>
<rect x="332.6" y="72.4" class="st4" width="94.6" height="37.8"/>
<g>
	<path class="st13" d="M346.1,101.4l6.4-18.8h4.9l6.4,18.8h-4.4l-1.3-4.6h-6.4l-1.4,4.6H346.1z M353.2,91.7l-0.6,2.1h4.6l-0.6-2.1
		c-0.3-1-0.6-2-0.8-3c-0.3-1-0.5-2-0.8-3h-0.1c-0.3,1-0.5,2-0.8,3C353.7,89.8,353.5,90.8,353.2,91.7z"/>
	<path class="st13" d="M375,101.8c-1.5,0-2.9-0.3-4.2-0.8c-1.3-0.5-2.4-1.2-3.4-1.9l2.1-2.8c0.8,0.7,1.7,1.2,2.7,1.7s2,0.6,3,0.6
		c1,0,1.7-0.2,2.2-0.6s0.8-0.9,0.8-1.6c0-0.7-0.3-1.3-0.8-1.6c-0.5-0.3-1.1-0.7-1.9-1l-2.2-0.9c-0.6-0.2-1.3-0.5-1.8-0.8
		c-0.6-0.3-1.1-0.7-1.5-1.1c-0.4-0.4-0.8-0.9-1.1-1.4s-0.4-1.2-0.4-1.9c0-0.8,0.2-1.6,0.5-2.3c0.3-0.7,0.8-1.3,1.4-1.8
		s1.3-0.9,2.2-1.1c0.9-0.3,1.8-0.4,2.8-0.4c1.5,0,2.7,0.2,3.8,0.7c1.1,0.5,2,1,2.8,1.7l-2.1,2.7c-0.6-0.5-1.4-0.9-2.1-1.3
		c-0.8-0.3-1.6-0.5-2.4-0.5c-0.9,0-1.5,0.2-2,0.5c-0.5,0.4-0.7,0.9-0.7,1.5c0,0.6,0.2,1,0.7,1.4c0.5,0.3,1.1,0.7,2,1l2.2,0.8
		c0.7,0.3,1.3,0.5,1.9,0.8c0.6,0.3,1.1,0.6,1.5,1c0.4,0.4,0.8,0.9,1,1.5c0.3,0.6,0.4,1.3,0.4,2.1c0,0.8-0.2,1.6-0.5,2.3
		s-0.8,1.3-1.4,1.8c-0.6,0.5-1.4,0.9-2.3,1.2S376.2,101.8,375,101.8z"/>
	<path class="st13" d="M388.1,101.4V82.6h4.2v18.8H388.1z"/>
	<path class="st13" d="M397,101.4l6.4-18.8h4.9l6.4,18.8h-4.4l-1.3-4.6h-6.4l-1.4,4.6H397z M404.1,91.7l-0.6,2.1h4.6l-0.6-2.1
		c-0.3-1-0.6-2-0.8-3c-0.3-1-0.5-2-0.8-3h-0.1c-0.3,1-0.5,2-0.8,3C404.6,89.8,404.3,90.8,404.1,91.7z"/>
</g>
</svg>
