<?xml version="1.0" encoding="utf-8"?>
<!-- Generator: Adobe Illustrator 24.2.3, SVG Export Plug-In . SVG Version: 6.00 Build 0)  -->
<svg version="1.1" id="Layer_1" xmlns="http://www.w3.org/2000/svg" xmlns:xlink="http://www.w3.org/1999/xlink" x="0px" y="0px"
	 viewBox="0 0 26.4 22.8" style="enable-background:new 0 0 26.4 22.8;" xml:space="preserve">
<style type="text/css">
	.st0{fill:#FFFFFF;}
</style>
<g>
	<path class="st0" d="M23.7,1.9h-21c-0.8,0-1.5,0.7-1.5,1.5v13c0,0.8,0.7,1.5,1.5,1.5h7.5v2H8.7c-0.3,0-0.5,0.2-0.5,0.5
		s0.2,0.5,0.5,0.5h9c0.3,0,0.5-0.2,0.5-0.5s-0.2-0.5-0.5-0.5h-1.5v-2h7.5c0.8,0,1.5-0.7,1.5-1.5v-13C25.2,2.6,24.5,1.9,23.7,1.9z
		 M15.2,19.9h-4v-2h4V19.9z M24.2,16.4c0,0.3-0.2,0.5-0.5,0.5h-21c-0.3,0-0.5-0.2-0.5-0.5v-1.5h22V16.4z M24.2,13.9h-22V3.4
		c0-0.3,0.2-0.5,0.5-0.5h21c0.3,0,0.5,0.2,0.5,0.5V13.9z"/>
	<path class="st0" d="M13.2,7.9c1.1,0,2-0.9,2-2s-0.9-2-2-2s-2,0.9-2,2S12.1,7.9,13.2,7.9z M13.2,4.9c0.6,0,1,0.4,1,1s-0.4,1-1,1
		s-1-0.4-1-1S12.6,4.9,13.2,4.9z"/>
	<path class="st0" d="M14.7,8.9h-3c-1.4,0-2.5,1.1-2.5,2.5v1c0,0.3,0.2,0.5,0.5,0.5s0.5-0.2,0.5-0.5v-1c0-0.8,0.7-1.5,1.5-1.5h3
		c0.8,0,1.5,0.7,1.5,1.5v1c0,0.3,0.2,0.5,0.5,0.5s0.5-0.2,0.5-0.5v-1C17.2,10,16.1,8.9,14.7,8.9z"/>
	<path class="st0" d="M21.2,6.9c0-1.1-0.9-2-2-2s-2,0.9-2,2s0.9,2,2,2S21.2,8,21.2,6.9z M18.2,6.9c0-0.6,0.4-1,1-1s1,0.4,1,1
		s-0.4,1-1,1S18.2,7.5,18.2,6.9z"/>
	<path class="st0" d="M7.2,4.9c-1.1,0-2,0.9-2,2s0.9,2,2,2s2-0.9,2-2S8.3,4.9,7.2,4.9z M7.2,7.9c-0.6,0-1-0.4-1-1s0.4-1,1-1
		s1,0.4,1,1S7.8,7.9,7.2,7.9z"/>
	<path class="st0" d="M20.7,9.9h-2c-0.3,0-0.5,0.2-0.5,0.5s0.2,0.5,0.5,0.5h2c0.8,0,1.5,0.7,1.5,1.5c0,0.3,0.2,0.5,0.5,0.5
		s0.5-0.2,0.5-0.5C23.2,11,22.1,9.9,20.7,9.9z"/>
	<path class="st0" d="M7.7,9.9h-2c-1.4,0-2.5,1.1-2.5,2.5c0,0.3,0.2,0.5,0.5,0.5s0.5-0.2,0.5-0.5c0-0.8,0.7-1.5,1.5-1.5h2
		c0.3,0,0.5-0.2,0.5-0.5S8,9.9,7.7,9.9z"/>
</g>
</svg>
