<?xml version="1.0" encoding="utf-8"?>
<!-- Generator: Adobe Illustrator 25.4.1, SVG Export Plug-In . SVG Version: 6.00 Build 0)  -->
<svg version="1.1" id="Layer_1" xmlns="http://www.w3.org/2000/svg" xmlns:xlink="http://www.w3.org/1999/xlink" x="0px" y="0px"
	 viewBox="0 0 207.5 80.7" style="enable-background:new 0 0 207.5 80.7;" xml:space="preserve">
<style type="text/css">
	.st0{fill:#9867F9;}
	.st1{fill:#87D1E6;}
	.st2{fill:#FF6E42;}
	.st3{clip-path:url(#SVGID_00000001652854334592945650000003440372011730014865_);fill:#E8E9F3;}
	.st4{clip-path:url(#SVGID_00000118385764504039137250000012685276378790721980_);fill:#E8E9F3;}
	.st5{clip-path:url(#SVGID_00000062194083161533771360000011370620098132711605_);fill:#E8E9F3;}
	.st6{clip-path:url(#SVGID_00000114065957213747687920000008905121270477122959_);fill:#E8E9F3;}
	.st7{fill:#FFCE33;}
</style>
<g>
	<g>
		<g>
			<path class="st0" d="M41.1,3.1C41.1,3.1,41.1,3.1,41.1,3.1L41,77.6c0,0,0,0,0.1,0c20.6,0,37.2-16.7,37.2-37.2
				C78.3,19.8,61.7,3.1,41.1,3.1z"/>
		</g>
	</g>
	<g>
		<rect x="4" y="3.1" class="st1" width="35.9" height="74.5"/>
	</g>
	<polyline class="st2" points="39.8,3.1 4,3.1 39.8,38.9 	"/>
	<polyline class="st2" points="39.8,77.6 4,77.6 39.8,41.8 	"/>
	<g>
		<defs>
			<polygon id="SVGID_1_" points="113.5,40.4 150.8,3.1 113.5,3.1 			"/>
		</defs>
		<clipPath id="SVGID_00000113327517344961095540000008991086878248580493_">
			<use xlink:href="#SVGID_1_"  style="overflow:visible;"/>
		</clipPath>
		
			<circle style="clip-path:url(#SVGID_00000113327517344961095540000008991086878248580493_);fill:#E8E9F3;" cx="113.5" cy="40.4" r="37.3"/>
	</g>
	<g>
		<defs>
			<polygon id="SVGID_00000150817048287708000370000013363612197559284408_" points="112.3,40.4 75,77.6 112.3,77.6 			"/>
		</defs>
		<clipPath id="SVGID_00000022528347109298742550000002293431757972821404_">
			<use xlink:href="#SVGID_00000150817048287708000370000013363612197559284408_"  style="overflow:visible;"/>
		</clipPath>
		
			<circle style="clip-path:url(#SVGID_00000022528347109298742550000002293431757972821404_);fill:#E8E9F3;" cx="112.3" cy="40.4" r="37.3"/>
	</g>
	<g>
		<g>
			<defs>
				<polygon id="SVGID_00000037695097368290560850000004586511772040346029_" points="175,40.4 212.3,3.1 175,3.1 				"/>
			</defs>
			<clipPath id="SVGID_00000067923715904307418920000017927120910994677644_">
				<use xlink:href="#SVGID_00000037695097368290560850000004586511772040346029_"  style="overflow:visible;"/>
			</clipPath>
			
				<circle style="clip-path:url(#SVGID_00000067923715904307418920000017927120910994677644_);fill:#E8E9F3;" cx="175" cy="40.4" r="37.3"/>
		</g>
		<g>
			<defs>
				<polygon id="SVGID_00000067222973382928912210000007392345923011601065_" points="173.8,40.4 136.5,77.6 173.8,77.6 				"/>
			</defs>
			<clipPath id="SVGID_00000158017603702180240910000015983025053990313149_">
				<use xlink:href="#SVGID_00000067222973382928912210000007392345923011601065_"  style="overflow:visible;"/>
			</clipPath>
			
				<circle style="clip-path:url(#SVGID_00000158017603702180240910000015983025053990313149_);fill:#E8E9F3;" cx="173.8" cy="40.4" r="37.3"/>
		</g>
	</g>
	<path class="st2" d="M173.8,3.1L173.8,3.1c-15.4,0-28,12.5-28,28s12.5,28,28,28h0V3.1z"/>
	<g>
		<path class="st7" d="M112.3,3.1L112.3,3.1c-15.4,0-28,12.5-28,28s12.5,28,28,28h0V3.1z"/>
	</g>
	<g>
		<path class="st0" d="M113.5,77.6L113.5,77.6c15.4,0,28-12.5,28-28s-12.5-28-28-28h0V77.6z"/>
	</g>
	<g>
		<path class="st1" d="M175,77.6L175,77.6c15.4,0,28-12.5,28-28s-12.5-28-28-28h0V77.6z"/>
	</g>
</g>
</svg>
