<?xml version="1.0" encoding="utf-8"?>
<!-- Generator: Adobe Illustrator 25.4.1, SVG Export Plug-In . SVG Version: 6.00 Build 0)  -->
<svg version="1.1" id="Layer_1" xmlns="http://www.w3.org/2000/svg" xmlns:xlink="http://www.w3.org/1999/xlink" x="0px" y="0px"
	 viewBox="0 0 207.5 80.7" style="enable-background:new 0 0 207.5 80.7;" xml:space="preserve">
<style type="text/css">
	.st0{fill:#9867F9;}
	.st1{fill:#87D1E6;}
	.st2{fill:#FF6E42;}
	.st3{clip-path:url(#SVGID_00000062893147750848311950000009095844938287430785_);fill:#595959;}
	.st4{clip-path:url(#SVGID_00000088855121397367118400000017246082558512635528_);fill:#595959;}
	.st5{clip-path:url(#SVGID_00000060718546694246343590000013436378908286397870_);fill:#595959;}
	.st6{clip-path:url(#SVGID_00000151519157440568458320000009006794569466332086_);fill:#595959;}
	.st7{fill:#FFCE33;}
</style>
<g>
	<g>
		<g>
			<path class="st0" d="M41.1,3.1C41.1,3.1,41.1,3.1,41.1,3.1L41,77.6c0,0,0,0,0.1,0c20.6,0,37.2-16.7,37.2-37.2
				C78.3,19.8,61.7,3.1,41.1,3.1z"/>
		</g>
	</g>
	<g>
		<rect x="4" y="3.1" class="st1" width="35.9" height="74.5"/>
	</g>
	<polyline class="st2" points="39.8,3.1 4,3.1 39.8,38.9 	"/>
	<polyline class="st2" points="39.8,77.6 4,77.6 39.8,41.8 	"/>
	<g>
		<defs>
			<polygon id="SVGID_1_" points="113.5,40.4 150.8,3.1 113.5,3.1 			"/>
		</defs>
		<clipPath id="SVGID_00000160163542805256604480000000604380844962192306_">
			<use xlink:href="#SVGID_1_"  style="overflow:visible;"/>
		</clipPath>
		
			<circle style="clip-path:url(#SVGID_00000160163542805256604480000000604380844962192306_);fill:#595959;" cx="113.5" cy="40.4" r="37.3"/>
	</g>
	<g>
		<defs>
			<polygon id="SVGID_00000111157027007975028880000003671435268730288028_" points="112.3,40.4 75,77.6 112.3,77.6 			"/>
		</defs>
		<clipPath id="SVGID_00000127765669986336541320000002371819729400468415_">
			<use xlink:href="#SVGID_00000111157027007975028880000003671435268730288028_"  style="overflow:visible;"/>
		</clipPath>
		
			<circle style="clip-path:url(#SVGID_00000127765669986336541320000002371819729400468415_);fill:#595959;" cx="112.3" cy="40.4" r="37.3"/>
	</g>
	<g>
		<g>
			<defs>
				<polygon id="SVGID_00000144309594290865697810000001022357489507841409_" points="175,40.4 212.3,3.1 175,3.1 				"/>
			</defs>
			<clipPath id="SVGID_00000145034756396997287450000015735294220717119624_">
				<use xlink:href="#SVGID_00000144309594290865697810000001022357489507841409_"  style="overflow:visible;"/>
			</clipPath>
			
				<circle style="clip-path:url(#SVGID_00000145034756396997287450000015735294220717119624_);fill:#595959;" cx="175" cy="40.4" r="37.3"/>
		</g>
		<g>
			<defs>
				<polygon id="SVGID_00000096030680431604356880000003714888794285595524_" points="173.8,40.4 136.5,77.6 173.8,77.6 				"/>
			</defs>
			<clipPath id="SVGID_00000078732813195496017020000003742476914806720148_">
				<use xlink:href="#SVGID_00000096030680431604356880000003714888794285595524_"  style="overflow:visible;"/>
			</clipPath>
			
				<circle style="clip-path:url(#SVGID_00000078732813195496017020000003742476914806720148_);fill:#595959;" cx="173.8" cy="40.4" r="37.3"/>
		</g>
	</g>
	<path class="st2" d="M173.8,3.1L173.8,3.1c-15.4,0-28,12.5-28,28s12.5,28,28,28h0V3.1z"/>
	<g>
		<path class="st7" d="M112.3,3.1L112.3,3.1c-15.4,0-28,12.5-28,28s12.5,28,28,28h0V3.1z"/>
	</g>
	<g>
		<path class="st0" d="M113.5,77.6L113.5,77.6c15.4,0,28-12.5,28-28s-12.5-28-28-28h0V77.6z"/>
	</g>
	<g>
		<path class="st1" d="M175,77.6L175,77.6c15.4,0,28-12.5,28-28s-12.5-28-28-28h0V77.6z"/>
	</g>
</g>
</svg>
