<svg id="Layer_1" data-name="Layer 1" xmlns="http://www.w3.org/2000/svg" viewBox="0 0 1084 186"><defs><style>.cls-1{fill:#322965;}.cls-2{fill:#ff6e42;}.cls-3{fill:#ed5735;}</style></defs><title>yb</title><path class="cls-1" d="M323.87,149a2.45,2.45,0,0,1-.84-1.83,5.23,5.23,0,0,1,.52-2.09l10.3-24.13-25-59.1a4.92,4.92,0,0,1-.53-1.83,3.52,3.52,0,0,1,.92-2,2.56,2.56,0,0,1,1.95-.85H322a3.52,3.52,0,0,1,3.39,2.48l17.35,42.53L360.34,59.6A4,4,0,0,1,364,57.12h10.57a2.65,2.65,0,0,1,1.95.79,2.51,2.51,0,0,1,.79,1.82,5.23,5.23,0,0,1-.53,2.09l-36.92,85.45a3.69,3.69,0,0,1-3.65,2.48H325.77A2.75,2.75,0,0,1,323.87,149Z"/><path class="cls-1" d="M394.78,118.44q-6.91-7.83-6.92-21.53V60.26a3,3,0,0,1,.92-2.29,3.13,3.13,0,0,1,2.21-.85h11.74a3.14,3.14,0,0,1,3.14,3.14V96.13q0,16.05,13.95,16.05c4.53,0,8.11-1.44,10.77-4.31s4-6.78,4-11.74V60.26a3,3,0,0,1,.91-2.29,3.17,3.17,0,0,1,2.22-.85h11.61a3.12,3.12,0,0,1,2.28.85,3.09,3.09,0,0,1,.85,2.29v61.57a3.13,3.13,0,0,1-.85,2.22,3,3,0,0,1-2.28.91H438.48a3.11,3.11,0,0,1-3.13-3.13v-5.35q-7.19,9.8-21.66,9.79Q401.69,126.27,394.78,118.44Z"/><path class="cls-1" d="M481.53,149.81q-7.17-3.84-10.18-8.8c-2-3.31-3-6.13-3-8.48a2.8,2.8,0,0,1,.92-2.15,3.09,3.09,0,0,1,2.21-.85h11.61a3.42,3.42,0,0,1,2,.59,4.11,4.11,0,0,1,1.37,2.15,15.22,15.22,0,0,0,4.3,5.8q2.86,2.42,8.87,2.42,7.83,0,11.48-3.46T514.8,125v-8.87q-7,8.35-20,8.35-13.57,0-20.42-8.22t-7.37-22.44l-.13-3.52.13-3.52q.52-14,7.43-22.44t20.36-8.48A26.81,26.81,0,0,1,507,58.43a24.44,24.44,0,0,1,8.61,7V60.39a3.08,3.08,0,0,1,1-2.35,3.23,3.23,0,0,1,2.28-.92h10.7a3,3,0,0,1,2.22.92,3.21,3.21,0,0,1,.91,2.35l.13,62.88q0,14.47-8.09,22.43t-24.39,8Q488.7,153.66,481.53,149.81Zm29.22-43.89a20.09,20.09,0,0,0,4-11.48c.08-.7.13-2.09.13-4.18s0-3.48-.13-4.17a20,20,0,0,0-4-11.48q-3.64-4.71-11-4.7-14.09,0-14.87,17.22l-.13,3.13q0,20.35,15,20.35Q507.1,110.61,510.75,105.92Z"/><path class="cls-1" d="M557.52,123.59a22,22,0,0,1-8.74-7.24,17.7,17.7,0,0,1,4-24.39q7.17-5.49,19.7-7.44l17.87-2.61V79.17c0-3.74-1-6.56-2.87-8.48s-5-2.87-9.13-2.87a13.31,13.31,0,0,0-6.92,1.57,22.17,22.17,0,0,0-4.24,3.19L565,74.74a2,2,0,0,1-2,1.56H552.89a2.88,2.88,0,0,1-2-.78,2.69,2.69,0,0,1-.85-2.09q.12-3.25,3.2-7.37a24.88,24.88,0,0,1,9.45-7.17q6.39-3.07,15.79-3.07,15.39,0,22.44,6.91t7,18.14v41a3.13,3.13,0,0,1-.85,2.22,2.94,2.94,0,0,1-2.28.91H594a3,3,0,0,1-2.21-.91,3,3,0,0,1-.92-2.22v-5.09a21.28,21.28,0,0,1-8.09,6.85,28.45,28.45,0,0,1-13,2.68A27.76,27.76,0,0,1,557.52,123.59Zm28.37-14.54q4.58-4.69,4.57-13.57V92.87l-13,2.09q-15,2.34-15,10a7.29,7.29,0,0,0,3.46,6.46,14.68,14.68,0,0,0,8.28,2.28A15.64,15.64,0,0,0,585.89,109.05Z"/><path class="cls-1" d="M641.6,117v4.83a3.06,3.06,0,0,1-.91,2.22,3.19,3.19,0,0,1-2.35.91H627.9a3.11,3.11,0,0,1-3.13-3.13V35.47a2.94,2.94,0,0,1,.91-2.28,3.13,3.13,0,0,1,2.22-.85h11.35a2.93,2.93,0,0,1,3.13,3.13v29q7.3-8.61,20-8.61,13.17,0,20.29,8.54t7.5,22.38c.08,1,.13,2.48.13,4.3s0,3.18-.13,4.31q-.52,14.09-7.57,22.5t-20.22,8.42Q648.78,126.27,641.6,117Zm30.66-22c.08-.87.13-2.18.13-3.92s0-3-.13-3.91q-.91-17.22-14.88-17.22-7.17,0-11,4.57a18,18,0,0,0-4,11.08c-.09,1-.13,2.74-.13,5.09s0,3.92.13,5a20.22,20.22,0,0,0,3.92,11.74q3.65,4.83,11.08,4.83Q671.35,112.18,672.26,95Z"/><path class="cls-1" d="M712.5,149a2.46,2.46,0,0,1-.85-1.83,5.27,5.27,0,0,1,.53-2.09l10.3-24.13-25.05-59.1a5.06,5.06,0,0,1-.52-1.83,3.46,3.46,0,0,1,.92-2,2.56,2.56,0,0,1,1.95-.85h10.83A3.52,3.52,0,0,1,714,59.6l17.35,42.53L749,59.6a4,4,0,0,1,3.65-2.48h10.57a2.65,2.65,0,0,1,1.95.79,2.51,2.51,0,0,1,.79,1.82,5.23,5.23,0,0,1-.53,2.09l-36.92,85.45a3.69,3.69,0,0,1-3.65,2.48H714.39A2.74,2.74,0,0,1,712.5,149Z"/><path class="cls-1" d="M790.06,118.77q-6-6.19-6-18.2V71.08H773.75A3.11,3.11,0,0,1,770.62,68V60.26a3.12,3.12,0,0,1,3.13-3.14h10.31V35.47a2.94,2.94,0,0,1,.91-2.28,3.13,3.13,0,0,1,2.22-.85H798a2.93,2.93,0,0,1,3.13,3.13V57.12h16.3a3.14,3.14,0,0,1,3.14,3.14V68a3.12,3.12,0,0,1-3.14,3.13h-16.3V99.13q0,5.61,2,8.48c1.31,1.92,3.44,2.87,6.4,2.87h9.13a2.93,2.93,0,0,1,3.13,3.13v8.22a3.13,3.13,0,0,1-.85,2.22,3,3,0,0,1-2.28.91h-10.7Q796.07,125,790.06,118.77Z"/><path class="cls-1" d="M839.57,117.92q-8.55-8.36-9.07-23.75l-.13-3.26q0-16.3,8.54-25.7t23.68-9.39q15.52,0,23.94,9.39T895,90.26V93a3,3,0,0,1-.92,2.22,3.16,3.16,0,0,1-2.34.91H848.37v1a20.25,20.25,0,0,0,4,12.07A12.26,12.26,0,0,0,862.59,114a14.74,14.74,0,0,0,12.14-6,7.27,7.27,0,0,1,1.82-1.76,5.57,5.57,0,0,1,2.22-.32h11.48a3.2,3.2,0,0,1,2,.65,2.15,2.15,0,0,1,.85,1.82q0,3.14-3.72,7.37a30.79,30.79,0,0,1-10.63,7.38,38.69,38.69,0,0,1-16,3.13Q848.11,126.27,839.57,117.92ZM876.94,85v-.26q0-7.69-3.85-12.33a12.93,12.93,0,0,0-10.5-4.63,12.75,12.75,0,0,0-10.43,4.63q-3.79,4.64-3.79,12.33V85Z"/><path class="cls-2" d="M912.91,124a3.09,3.09,0,0,1-1-2.28V37a3.39,3.39,0,0,1,.91-2.41,3.08,3.08,0,0,1,2.35-1H949.5q19.31,0,30,9.2t11.22,26.42q.13,3.78.13,10c0,4.18,0,7.48-.13,9.92Q989.42,125,950.15,125h-35A3.09,3.09,0,0,1,912.91,124Zm36.59-18.59q8.22,0,12.13-3.91T965.81,89q.26-3.79.26-9.79t-.26-9.65q-.27-8.35-4.5-12.33t-12.46-4h-12.4v52.18Z"/><path class="cls-2" d="M1006.7,124a3.12,3.12,0,0,1-1-2.28V37a3.39,3.39,0,0,1,.91-2.41,3.08,3.08,0,0,1,2.35-1h40.31q16.56,0,24.65,6.79t8.09,19.3a17.92,17.92,0,0,1-3.32,10.83,21.45,21.45,0,0,1-7.37,6.65,21.11,21.11,0,0,1,9,7.77A21.33,21.33,0,0,1,1084,97.17q0,13.18-8.68,20.49t-24.85,7.3H1009A3.13,3.13,0,0,1,1006.7,124Zm39.86-54.2c3.22,0,5.69-.87,7.43-2.61a9.17,9.17,0,0,0,2.61-6.78,8.88,8.88,0,0,0-2.54-6.59q-2.55-2.55-7.5-2.55h-16.31V69.78Zm1.17,37.57q5.08,0,7.9-2.93a10.84,10.84,0,0,0-.07-14.62,10.46,10.46,0,0,0-7.83-2.93h-17.48v20.48Z"/><path class="cls-1" d="M184.17,27.43A92.75,92.75,0,0,0,32.51,127.52a256.72,256.72,0,0,0-18.29,20,124.78,124.78,0,0,0-9.11,12.72,45.67,45.67,0,0,0-3.66,7.14,21.3,21.3,0,0,0-1.21,4.06,10.31,10.31,0,0,0,.09,4.8,7.9,7.9,0,0,0,.53,1.3,7.53,7.53,0,0,0,.84,1.19A6.58,6.58,0,0,0,4,180.37a11.42,11.42,0,0,0,4.71.9,31.76,31.76,0,0,0,8.21-1.39,100,100,0,0,0,14.74-5.78,262.06,262.06,0,0,0,23.8-13.21A92.73,92.73,0,0,0,211.33,93h0A92.44,92.44,0,0,0,184.17,27.43Zm-154.79,142a97.62,97.62,0,0,1-13.84,5.84,28.21,28.21,0,0,1-6.93,1.39,7.24,7.24,0,0,1-2.85-.36,2.13,2.13,0,0,1-1.36-1.38,6.24,6.24,0,0,1-.11-2.84,17.57,17.57,0,0,1,.86-3.37A48.74,48.74,0,0,1,8.22,162a124.65,124.65,0,0,1,8.14-12.87C21.46,141.85,27,134.88,32.69,128a92.78,92.78,0,0,0,18.77,29C44.25,161.44,36.91,165.69,29.38,169.45Zm150.93-14.74a87.26,87.26,0,0,1-120.08,3.16q12.33-8,24.17-16.6c8.31-6.14,16.53-12.4,24.52-19s15.85-13.22,23.53-20.11c7.53-7,15.07-14.09,22.44-21.29-8.17,6.31-16.17,12.79-24.16,19.25S114.5,112.79,106.3,119s-16.48,12.24-24.91,18.1S64.75,148.61,56.19,154a87.26,87.26,0,1,1,124.12.73Z"/><path class="cls-3" d="M237.68,4.56S215,.94,207.4,7.52L193.51,19.6l-1.29,1.12-.65.57s-23.71-1.58-28.84,2.88l-5.28,4.59h0l-2,1.7-2.11,1.84-.54.47,11,12.63c-3.39,3-1,11.3,5.43,18.64S183.56,75,187,72l11,12.64.34-.3,4.27-3.71h0l5.28-4.59C213,71.59,214.7,47.9,214.7,47.9L216,46.75l1.07-.93,13.45-11.69C238.11,27.55,237.68,4.56,237.68,4.56Zm-68.33,36,.77-.67Zm42.37,9.88-.74.65Z"/></svg>