<?xml version="1.0" encoding="utf-8"?>
<!-- Generator: Adobe Illustrator 26.0.3, SVG Export Plug-In . SVG Version: 6.00 Build 0)  -->
<svg version="1.1" id="Layer_1" xmlns="http://www.w3.org/2000/svg" xmlns:xlink="http://www.w3.org/1999/xlink" x="0px" y="0px"
	 viewBox="0 0 57 54" style="enable-background:new 0 0 57 54;" xml:space="preserve">
<style type="text/css">
	.st0{fill:#FF6E42;}
</style>
<g>
	<path class="st0" d="M48.2,4.6h-6.7V2.9c0-1.4-1.1-2.5-2.5-2.5s-2.5,1.1-2.5,2.5v1.8h-16V2.9c0-1.4-1.1-2.5-2.5-2.5
		s-2.5,1.1-2.5,2.5v1.8H8.8c-4.5,0-8.1,3.7-8.1,8.1v32.7c0,4.5,3.6,8.1,8.1,8.1h39.4c4.5,0,8.1-3.7,8.1-8.1V12.8
		C56.4,8.3,52.7,4.6,48.2,4.6z M51.4,21.9v23.6c0,1.7-1.4,3.1-3.1,3.1H8.8c-1.7,0-3.1-1.4-3.1-3.1V21.9H51.4z M18,13.9
		c1.4,0,2.5-1.1,2.5-2.5V9.6h16v1.8c0,1.4,1.1,2.5,2.5,2.5s2.5-1.1,2.5-2.5V9.6h6.7c1.7,0,3.1,1.4,3.1,3.1v4.1H5.6v-4.1
		c0-1.7,1.4-3.1,3.1-3.1h6.7v1.8C15.5,12.8,16.6,13.9,18,13.9z"/>
	<polygon class="st0" points="25.8,45.9 31.2,45.9 31.2,38.3 38.4,38.3 38.4,33 31.2,33 31.2,25.4 25.8,25.4 25.8,33 18.6,33 
		18.6,38.3 25.8,38.3 	"/>
</g>
</svg>
