<?xml version="1.0" encoding="utf-8"?>
<!-- Generator: Adobe Illustrator 26.0.3, SVG Export Plug-In . SVG Version: 6.00 Build 0)  -->
<svg version="1.1" id="Layer_1" xmlns="http://www.w3.org/2000/svg" xmlns:xlink="http://www.w3.org/1999/xlink" x="0px" y="0px"
	 viewBox="0 0 700 541.5" style="enable-background:new 0 0 700 541.5;" xml:space="preserve">
<style type="text/css">
	.st0{fill:#FFFFFF;}
</style>
<g>
	<path class="st0" d="M268.6,84.2c-32.7,0-59.3,26.9-59.3,59.8c0,20.2,10.1,38.2,25.4,49.1c-17.3,7.1-31.9,19.4-41.9,35
		c-2-0.2-4.1-0.3-6.1-0.3c-32.7,0-59.3,27-59.3,59.9c0,20.2,10.1,38.2,25.4,49c-33.2,13.5-56.6,46.2-56.6,84.5v27.4h0
		c0,4.8,4,8.7,8.8,8.7h490c4.8,0,8.7-3.9,8.7-8.7v-27.4c0-38.3-23.4-71-56.5-84.5c15.4-10.8,25.4-28.8,25.4-49
		c0-32.9-26.6-59.9-59.3-59.9c-2.6,0-5.2,0.2-7.7,0.6c-10-15.7-24.7-28.1-42.1-35.2c15.4-10.9,25.5-28.8,25.5-49.1
		c0-32.9-26.6-59.8-59.4-59.8c-32.7,0-59.3,26.9-59.3,59.8c0,20.2,10.1,38.2,25.4,49.1c-17.3,7-31.8,19.3-41.8,34.9
		c-1.3-0.1-2.7-0.2-4.1-0.2c-1.9,0-3.8,0.1-5.7,0.3c-10-15.6-24.6-27.9-41.9-34.9c15.4-10.9,25.5-28.8,25.5-49.1
		C328,111.1,301.3,84.2,268.6,84.2L268.6,84.2z M268.6,101.8c23.2,0,41.9,18.8,41.9,42.3s-18.7,42.4-41.9,42.4
		c-23.2,0-41.8-18.9-41.8-42.4S245.4,101.8,268.6,101.8z M429.7,101.8c23.2,0,41.9,18.8,41.9,42.3s-18.7,42.4-41.9,42.4
		c-23.2,0-41.8-18.9-41.8-42.4S406.6,101.8,429.7,101.8z M268.6,203.9c23.7,0,44.5,11.3,57.8,28.8c-21,9.3-35.7,30.4-35.7,54.9
		c0,20.2,10.1,38.2,25.5,49c-21.1,8.6-38.1,24.9-47.8,45.5c-9.7-20.6-26.7-37-47.8-45.5c15.4-10.8,25.5-28.8,25.5-49
		c0-24.3-14.6-45.4-35.4-54.7C223.9,215.3,244.8,203.9,268.6,203.9L268.6,203.9z M429.7,203.9c24.1,0,45.2,11.6,58.5,29.6
		c-20.2,9.6-34.2,30.3-34.2,54.1c0,20.2,10.1,38.2,25.5,49c-21.1,8.6-38.1,24.9-47.8,45.5c-9.7-20.6-26.7-37-47.8-45.6
		c1.3-0.9,2.6-1.9,3.8-2.9c1.5-1.2,2.9-2.5,4.2-3.9c10.7-10.8,17.4-25.8,17.4-42.2c0-2.1-0.1-4.1-0.3-6.1c-1.6-16-9.6-30.3-21.3-40
		c-4.6-3.9-9.8-7-15.4-9.3C385.6,215,406.3,203.9,429.7,203.9L429.7,203.9z M186.7,245.3c23.2,0,41.9,18.8,41.9,42.4
		c0,23.5-18.7,42.3-41.9,42.3c-23.2,0-41.9-18.8-41.9-42.3C144.8,264.1,163.5,245.3,186.7,245.3L186.7,245.3z M350,245.3
		c23.2,0,41.8,18.8,41.8,42.4c0,23.5-18.6,42.3-41.8,42.3c-23.2,0-41.9-18.8-41.9-42.3c0-2.9,0.3-5.8,0.9-8.6
		C312.9,259.7,329.8,245.3,350,245.3L350,245.3z M513.4,245.3c23.2,0,41.8,18.8,41.8,42.4c0,23.5-18.6,42.3-41.8,42.3
		c-23.2,0-41.9-18.8-41.9-42.3C471.5,264.1,490.2,245.3,513.4,245.3L513.4,245.3z M186.7,347.5c40.5,0,72.9,32.6,72.9,73.6v18.6
		l-145.8,0v-18.6C113.8,380.1,146.2,347.5,186.7,347.5L186.7,347.5z M350,347.5c40.5,0,72.9,32.6,72.9,73.6v18.6l-145.8,0v-18.6
		C277.1,380.1,309.5,347.5,350,347.5L350,347.5z M513.4,347.5c40.5,0,72.9,32.6,72.9,73.6v18.6l-145.8,0v-18.6
		C440.4,380.1,472.9,347.5,513.4,347.5L513.4,347.5z"/>
</g>
</svg>
