<?xml version="1.0" encoding="utf-8"?>
<svg width="197px" height="35px" viewBox="0 0 197 35" version="1.1" xmlns:xlink="http://www.w3.org/1999/xlink" xmlns="http://www.w3.org/2000/svg">
  <g id="Group_4">
    <g id="Group_2" transform="translate(56.622246 6.040457)">
      <path d="M2.82134 16.5942C2.72444 16.5118 2.66846 16.3913 2.66811 16.2642C2.67297 16.1334 2.70503 16.005 2.76225 15.8872L4.62712 11.5272L0.0941449 0.8492C0.0416221 0.746338 0.00964636 0.634256 0 0.5192C0.0133468 0.382394 0.0714193 0.253776 0.165254 0.1532C0.255218 0.0533017 0.384276 -0.00254972 0.518798 0.000199827L2.47781 0.000199827C2.75898 -0.00186227 3.00834 0.180102 3.09176 0.4482L6.23159 8.1322L9.4185 0.4482C9.52936 0.180382 9.7893 0.00420722 10.0795 0.000199827L11.9915 0.000199827C12.1238 -0.00361842 12.2517 0.0474232 12.345 0.1412C12.4357 0.22703 12.4868 0.346456 12.4862 0.4712C12.4812 0.601996 12.4491 0.730341 12.3921 0.8482L5.71079 16.2872C5.61374 16.5659 5.34503 16.748 5.04977 16.7352L3.16086 16.7352C3.03369 16.7338 2.912 16.6833 2.82134 16.5942L2.82134 16.5942Z" transform="translate(0 4.476476)" id="Path_1" fill="#FFFFFF" stroke="none" />
      <path d="M1.26039 11.0787C0.373998 9.98256 -0.0719378 8.59619 0.00946456 7.1897L0.00946456 0.566703C0.00204924 0.411638 0.0623325 0.260979 0.174719 0.153703C0.283149 0.0524657 0.426918 -0.00244141 0.575335 0.00070314L2.70061 0.00070314C2.85118 -0.00161152 2.99607 0.0580639 3.10122 0.165703C3.20903 0.270691 3.2688 0.415359 3.26648 0.565703L3.26648 7.0477C3.26648 8.98104 4.10844 9.9477 5.79236 9.9477C6.52398 9.98276 7.23479 9.69888 7.74036 9.1697C8.24506 8.58171 8.50302 7.82192 8.46047 7.0487L8.46047 0.566703C8.45319 0.41166 8.51345 0.261055 8.62572 0.153703C8.73415 0.0524657 8.87792 -0.00244141 9.02634 0.00070314L11.1296 0.00070314C11.2826 -0.00696395 11.4321 0.048334 11.5432 0.153703C11.6487 0.264631 11.7041 0.4139 11.6965 0.566703L11.6965 11.6917C11.6997 11.8399 11.6447 11.9835 11.5432 12.0917C11.4358 12.204 11.2849 12.2642 11.1296 12.2567L9.17056 12.2567C9.01992 12.2594 8.87489 12.1996 8.76995 12.0917C8.66184 11.9869 8.60202 11.8421 8.60469 11.6917L8.60469 10.7257C7.67813 11.9342 6.20634 12.5981 4.68566 12.4937C3.38926 12.5581 2.13222 12.0388 1.26039 11.0787Z" transform="translate(14.391699 4.4769726)" id="Path_2" fill="#FFFFFF" stroke="none" />
      <path d="M2.64707 16.9901C1.90191 16.6334 1.26595 16.0841 0.805239 15.3991C0.491507 14.9455 0.304166 14.4168 0.262404 13.8671C0.258168 13.7196 0.318502 13.5776 0.427658 13.4781C0.53603 13.3768 0.679839 13.3219 0.828275 13.3251L2.93151 13.3251C3.06129 13.3217 3.18897 13.3583 3.29707 13.4301C3.41863 13.5304 3.50524 13.6666 3.54445 13.8191C3.71612 14.2261 3.98338 14.5859 4.32365 14.8681C4.79106 15.1945 5.3575 15.3486 5.92612 15.3041C6.67296 15.3674 7.41587 15.1439 8.00332 14.6791C8.5092 14.0713 8.74759 13.2851 8.66433 12.4991L8.66433 10.8991C7.7574 11.9305 6.42512 12.4872 5.05278 12.4081C3.65771 12.5088 2.29423 11.9608 1.35809 10.9231C0.471191 9.75912 0.00140343 8.3315 0.024037 6.86912L0 6.23212L0.024037 5.59612C0.011842 4.13358 0.48479 2.70813 1.36911 1.54212C2.28814 0.483116 3.65153 -0.0840577 5.05177 0.0101204C5.81048 -0.00626032 6.56244 0.155409 7.24715 0.48212C7.85755 0.781013 8.3908 1.21626 8.80555 1.75412L8.80555 0.83512C8.80037 0.674534 8.86501 0.519558 8.98282 0.41012C9.09344 0.303323 9.24159 0.244084 9.39546 0.24512L11.3314 0.24512C11.482 0.243042 11.6268 0.302681 11.7321 0.41012C11.8431 0.523196 11.9029 0.67683 11.8973 0.83512L11.9213 12.1961C12.0144 13.6911 11.4849 15.1581 10.4581 16.2501C9.23609 17.2957 7.64775 17.8131 6.0433 17.6881C4.87113 17.7357 3.70512 17.4961 2.64707 16.9901L2.64707 16.9901ZM7.93521 9.05812C8.38804 8.45894 8.64381 7.73438 8.66734 6.98412C8.6827 6.85879 8.69071 6.60745 8.69138 6.23012C8.69204 5.85279 8.68403 5.60145 8.66734 5.47612C8.64387 4.72585 8.3881 4.00127 7.93521 3.40212C7.45039 2.81586 6.71173 2.49962 5.95216 2.55312C4.25221 2.55312 3.35516 3.59045 3.26102 5.66512L3.23698 6.23012C3.23698 8.68145 4.14204 9.90712 5.95216 9.90712C6.71002 9.95897 7.44644 9.64289 7.9302 9.05812L7.93521 9.05812Z" transform="translate(28.709183 4.2345552)" id="Path_3" fill="#FFFFFF" stroke="none" />
      <path d="M2.15996 12.2758C1.52795 11.9844 0.982902 11.5335 0.57853 10.9678C0.199932 10.4383 -0.00224207 9.80332 0.00064079 9.15276C-0.0201685 8.12694 0.466942 7.15683 1.30264 6.55976C2.36115 5.82422 3.5859 5.36242 4.86713 5.21576L8.10111 4.74476L8.10111 4.24476C8.14195 3.68499 7.95449 3.13249 7.58131 2.71276C7.12118 2.32781 6.52675 2.14112 5.92876 2.19376C5.49384 2.17357 5.06157 2.27137 4.67784 2.47676C4.39937 2.63734 4.14172 2.83146 3.91066 3.05476L3.52106 3.44376C3.48605 3.61072 3.33734 3.72942 3.16651 3.72676L1.32568 3.72676C1.18991 3.72902 1.05866 3.67804 0.960117 3.58476C0.856505 3.48736 0.800555 3.34971 0.806882 3.20776C0.863203 2.71624 1.06472 2.25257 1.38577 1.87576C1.84306 1.31104 2.43028 0.865047 3.09741 0.57576C3.99621 0.180609 4.9722 -0.0086835 5.9538 0.0217599C7.41881 -0.107305 8.87621 0.341376 10.0141 1.27176C10.8778 2.13857 11.34 3.32605 11.289 4.54776L11.289 11.9478C11.2923 12.096 11.2373 12.2396 11.1358 12.3478C11.0284 12.4601 10.8775 12.5203 10.7221 12.5128L8.76313 12.5128C8.61248 12.5154 8.46745 12.4557 8.36251 12.3478C8.2546 12.2428 8.19482 12.0981 8.19726 11.9478L8.19726 11.0288C7.82114 11.5571 7.31795 11.9825 6.734 12.2658C5.99644 12.6109 5.18743 12.7764 4.37337 12.7488C3.60911 12.7615 2.85204 12.5997 2.15996 12.2758L2.15996 12.2758ZM7.29386 9.64776C7.88436 8.97234 8.18162 8.0902 8.12014 7.19576L8.12014 6.72476L5.7595 7.10176C3.94938 7.38443 3.04432 7.98909 3.04432 8.91576C3.02799 9.38876 3.26692 9.83419 3.67029 10.0828C4.11861 10.3668 4.64186 10.5103 5.1726 10.4948C5.96738 10.5221 6.73709 10.2147 7.29386 9.64776L7.29386 9.64776Z" transform="translate(42.942448 4.210916)" id="Path_4" fill="#FFFFFF" stroke="none" />
      <path d="M3.04532 15.2957L3.04532 16.1677C3.04764 16.318 2.98787 16.4627 2.88006 16.5677C2.76725 16.6786 2.61366 16.7383 2.45541 16.7327L0.566504 16.7327C0.41586 16.7353 0.270832 16.6756 0.165887 16.5677C0.0577791 16.4629 -0.00204468 16.3181 0.000632632 16.1677L0.000632632 0.566676C-0.00691647 0.411588 0.0533881 0.260876 0.165887 0.153676C0.274259 0.0523465 0.418067 -0.00257548 0.566504 0.000675918L2.62066 0.000675918C2.77338 -0.00683185 2.92251 0.0484629 3.0333 0.153676C3.13893 0.264541 3.19433 0.413854 3.18654 0.566676L3.18654 5.79868C4.08641 4.75271 5.41856 4.17876 6.79809 4.24268C8.19573 4.15998 9.55249 4.73052 10.4697 5.78668C11.3707 6.94 11.8495 8.36622 11.8268 9.82868C11.8422 10.0173 11.8502 10.2767 11.8509 10.6067C11.8509 10.9213 11.8429 11.1807 11.8268 11.3847C11.8424 12.8553 11.3599 14.2881 10.4577 15.4507C9.53843 16.4945 8.18762 17.0555 6.79809 16.9707C5.34874 17.0552 3.94881 16.4304 3.04532 15.2957L3.04532 15.2957ZM8.59286 11.3127C8.60788 11.1557 8.61689 10.9197 8.61689 10.6057C8.61689 10.2917 8.60888 10.0557 8.59286 9.89868C8.48269 7.82401 7.58564 6.78701 5.90171 6.78768C5.1482 6.73996 4.41531 7.04486 3.91866 7.61268C3.45653 8.1783 3.19863 8.88282 3.18654 9.61268C3.17051 9.80068 3.1625 10.107 3.1625 10.5317C3.1625 10.9403 3.17051 11.2403 3.18654 11.4317C3.19435 12.1953 3.44202 12.9371 3.89463 13.5527C4.37863 14.1538 5.12718 14.4797 5.89771 14.4247C7.58297 14.424 8.48102 13.3867 8.59186 11.3127L8.59286 11.3127Z" transform="translate(57.27251 0)" id="Path_5" fill="#FFFFFF" stroke="none" />
      <path d="M2.82134 16.5942C2.72455 16.5118 2.6686 16.3913 2.66811 16.2642C2.67294 16.1334 2.705 16.005 2.76225 15.8872L4.62712 11.5272L0.0941449 0.849216C0.0416935 0.746327 0.00972178 0.634258 0 0.519216C0.0133468 0.38241 0.0714193 0.253793 0.165254 0.153216C0.255218 0.053318 0.384276 -0.0025334 0.518798 0.000216144L2.47881 0.000216144C2.75998 -0.00184595 3.00934 0.180118 3.09276 0.448216L6.23259 8.13222L9.4195 0.448216C9.53036 0.180398 9.7903 0.00422353 10.0805 0.000216144L11.9925 0.000216144C12.1251 -0.0037606 12.2534 0.0472841 12.347 0.141216C12.4376 0.227116 12.4887 0.346496 12.4882 0.471216C12.4832 0.602017 12.4511 0.730367 12.3941 0.848216L5.71279 16.2872C5.61602 16.5661 5.34713 16.7484 5.05177 16.7352L3.16287 16.7352C3.03499 16.7343 2.91249 16.6838 2.82134 16.5942L2.82134 16.5942Z" transform="translate(70.32623 4.47646)" id="Path_6" fill="#FFFFFF" stroke="none" />
      <path d="M3.5165 15.6147C2.73433 14.7046 2.3441 13.5228 2.43083 12.3267L2.43083 6.99968L0.565957 6.99968C0.415336 7.00223 0.270354 6.94252 0.16534 6.83468C0.0572326 6.72989 -0.00259116 6.58509 8.61546e-05 6.43468L8.61546e-05 5.04368C-0.00235125 4.89331 0.0574348 4.7486 0.16534 4.64368C0.270423 4.53594 0.415358 4.47624 0.565957 4.47868L2.42682 4.47868L2.42682 0.566676C2.41927 0.411588 2.47958 0.260876 2.59208 0.153676C2.70045 0.0523465 2.84426 -0.00257548 2.99269 0.000675918L4.95171 0.000675918C5.10442 -0.00683185 5.25355 0.0484629 5.36434 0.153676C5.46997 0.264541 5.52537 0.413854 5.51758 0.566676L5.51758 4.47968L8.46812 4.47968C8.61867 4.47748 8.76352 4.53714 8.86873 4.64468C8.97654 4.74966 9.03631 4.89433 9.03399 5.04468L9.03399 6.43568C9.03655 6.58607 8.97674 6.73082 8.86873 6.83568C8.76365 6.94342 8.61872 7.00311 8.46812 7.00068L5.51758 7.00068L5.51758 12.0687C5.48249 12.603 5.6058 13.1359 5.87212 13.6007C6.14157 13.9622 6.57928 14.1585 7.0289 14.1197L8.68145 14.1197C8.8345 14.1119 8.98405 14.1672 9.09508 14.2727C9.20046 14.3833 9.25584 14.5322 9.24832 14.6847L9.24832 16.1697C9.25147 16.3179 9.19648 16.4614 9.09508 16.5697C8.98764 16.6819 8.83675 16.7421 8.68145 16.7347L6.74547 16.7347C5.56049 16.8221 4.39199 16.4168 3.5165 15.6147Z" transform="translate(83.66467 0)" id="Path_7" fill="#FFFFFF" stroke="none" />
      <path d="M1.67511 11.2323C0.582421 10.0746 -0.00731904 8.53246 0.0345819 6.94228L0.0105449 6.35328C-0.084724 4.66549 0.468322 3.00498 1.55692 1.71028C2.6668 0.544364 4.23288 -0.0770096 5.84152 0.0102765C7.46589 -0.0888744 9.05119 0.533293 10.1732 1.71028C11.2344 2.97273 11.7782 4.58917 11.6955 6.23528L11.6955 6.73528C11.698 6.88564 11.6382 7.03036 11.5303 7.13528C11.4175 7.24633 11.2639 7.30603 11.1056 7.30028L3.26856 7.30028L3.26856 7.48928C3.26804 8.27428 3.52052 9.03861 3.98867 9.66928C4.42965 10.2395 5.12064 10.5602 5.84152 10.5293C6.70622 10.5455 7.5249 10.1412 8.0369 9.44528C8.12681 9.32011 8.23881 9.21235 8.36741 9.12728C8.49529 9.07964 8.63181 9.05954 8.76802 9.06828L10.8452 9.06828C10.9769 9.06547 11.1057 9.10704 11.2108 9.18628C11.3128 9.26464 11.3701 9.38787 11.364 9.51628C11.3025 10.0252 11.0643 10.4965 10.691 10.8483C10.1514 11.4233 9.49559 11.8773 8.76702 12.1803C7.85048 12.574 6.86009 12.767 5.86255 12.7463C4.31948 12.8253 2.80971 12.2795 1.67511 11.2323ZM8.43851 5.29328L8.43851 5.24628C8.47773 4.44398 8.22915 3.65402 7.73744 3.01828C7.26888 2.45782 6.56493 2.14819 5.83451 2.18128C5.10782 2.14681 4.40754 2.45711 3.9456 3.01828C3.46277 3.65777 3.22062 4.44647 3.26155 5.24628L3.26155 5.29328L8.43851 5.29328Z" transform="translate(94.46485 4.2283993)" id="Path_8" fill="#FFFFFF" stroke="none" />
      <g id="Group_1" transform="translate(109.23387 0.21151035)">
        <path d="M0.177507 16.3405C0.0640283 16.2334 -0.000122055 16.0843 0.00023456 15.9285L0.00023456 0.628466C-0.00422819 0.467093 0.0551405 0.310457 0.165489 0.192466C0.274631 0.0747664 0.42958 0.0101821 0.590142 0.0154665L6.7997 0.0154665C8.75136 -0.105391 10.6806 0.485179 12.2291 1.67747C13.5697 2.89729 14.311 4.64017 14.2592 6.45047C14.2745 6.90647 14.2825 7.51147 14.2832 8.26547C14.2839 9.01947 14.2759 9.61647 14.2592 10.0565C14.1016 14.3618 11.6542 16.5145 6.91688 16.5145L0.590142 16.5145C0.434483 16.5156 0.285228 16.4527 0.177507 16.3405L0.177507 16.3405ZM6.7997 12.9815C7.59672 13.0483 8.38737 12.7937 8.99508 12.2745C9.52508 11.6434 9.79503 10.8348 9.75024 10.0125C9.78162 9.55713 9.79731 8.9678 9.79731 8.24447C9.79731 7.52113 9.78162 6.9398 9.75024 6.50047C9.78937 5.67877 9.49595 4.87588 8.93599 4.27247C8.30514 3.7521 7.49767 3.49458 6.68152 3.55347L4.43907 3.55347L4.43907 12.9815L6.7997 12.9815Z" transform="translate(0 0.004699102)" id="Path_9" fill="#FF6E42" stroke="none" />
        <path d="M0.177507 16.3452C0.0640283 16.2381 -0.000122055 16.089 0.00023456 15.9332L0.00023456 0.633166C-0.00422819 0.471792 0.0551405 0.315156 0.165489 0.197166C0.274631 0.0794655 0.42958 0.0148812 0.590142 0.0201656L7.88437 0.0201656C9.4692 -0.101739 11.047 0.331803 12.3462 1.24617C13.3476 2.12102 13.8877 3.40891 13.8095 4.73517C13.8267 5.43495 13.6158 6.12137 13.2086 6.69117C12.864 7.18986 12.4071 7.60088 11.8745 7.89117C12.5408 8.19195 13.1061 8.67799 13.503 9.29117C13.9421 9.9404 14.1727 10.7078 14.164 11.4912C14.2406 12.9004 13.661 14.2659 12.5936 15.1912C11.2988 16.1495 9.70499 16.6173 8.09669 16.5112L0.585135 16.5112C0.432388 16.513 0.285373 16.4532 0.177507 16.3452L0.177507 16.3452ZM7.38861 6.55117C7.88279 6.58359 8.36887 6.41351 8.73468 6.08017C9.05413 5.75369 9.22476 5.31022 9.2064 4.85417C9.22351 4.41108 9.05683 3.98056 8.74569 3.66417C8.3742 3.33399 7.88464 3.16805 7.38861 3.20417L4.43806 3.20417L4.43806 6.55117L7.38861 6.55117ZM7.60093 13.3392C8.13054 13.3714 8.64918 13.179 9.02913 12.8092C9.36654 12.4584 9.54939 11.9874 9.53691 11.5012C9.55183 11.0053 9.36462 10.5247 9.01811 10.1692C8.64031 9.8037 8.12724 9.61169 7.60193 9.63916L4.43907 9.63916L4.43907 13.3392L7.60093 13.3392Z" transform="translate(16.973122 0)" id="Path_10" fill="#FF6E42" stroke="none" />
      </g>
    </g>
    <g id="Group_3">
      <path d="M33.709 4.97913C30.5234 1.7804 26.1883 -0.0125438 21.6705 0.000132832L21.6705 0.000132832C17.1526 -0.0125438 12.8175 1.7804 9.63193 4.97913C6.42802 8.16004 4.63229 12.4889 4.64525 17.0001C4.64229 19.0857 5.02565 21.1538 5.77599 23.1001C4.6704 24.1934 3.62206 25.3429 2.63516 26.5441C2.03154 27.2811 1.47556 28.0556 0.970598 28.8631C0.703775 29.2871 0.475193 29.7338 0.287547 30.1981C0.181561 30.4563 0.101382 30.7242 0.0481788 30.9981C-0.0230837 31.3343 -0.0151982 31.6825 0.0712142 32.0151C0.0926017 32.0978 0.122821 32.1779 0.161353 32.2541L0.18539 32.3051C0.194439 32.324 0.204468 32.3423 0.215436 32.3601C0.266281 32.4484 0.325655 32.5314 0.392709 32.6081C0.542118 32.7791 0.727007 32.9156 0.934543 33.0081C1.25133 33.1411 1.59253 33.2061 1.93608 33.1991C2.47001 33.1824 2.99924 33.094 3.50951 32.9361C4.43717 32.6545 5.34133 32.3007 6.21367 31.8781C7.60805 31.1997 8.9669 30.4507 10.2849 29.6341C13.4076 32.4498 17.467 34.0059 21.6745 34.0001L21.6745 34.0001C26.1922 34.0124 30.5272 32.2195 33.713 29.0211C36.9166 25.84 38.7123 21.5113 38.6997 17.0001C38.7116 12.4883 36.9144 8.15938 33.709 4.97913L33.709 4.97913ZM6.13855 23.9731C6.86582 25.5883 7.84253 27.0794 9.03301 28.3921C7.74502 29.1801 6.57823 29.8321 5.47753 30.3801L5.47753 30.3801C4.69485 30.7836 3.8822 31.1263 3.04679 31.4051C2.67397 31.5312 2.28661 31.6095 1.89402 31.6381C1.77707 31.6478 1.65933 31.6363 1.54648 31.6041C1.52345 31.5941 1.51143 31.5871 1.50943 31.5871C1.50546 31.5824 1.50178 31.5773 1.49841 31.5721C1.47502 31.4624 1.47502 31.3489 1.49841 31.2391C1.52726 31.0559 1.57423 30.8761 1.63863 30.7021C1.7842 30.3045 1.96032 29.9187 2.16544 29.5481C2.59811 28.7619 3.0791 28.0031 3.60565 27.2761C4.37183 26.1861 5.18408 25.1481 6.13755 23.9731L6.13855 23.9731ZM15.7453 25.9541C17.5 24.6601 18.9042 23.5771 20.1621 22.5451C21.5473 21.4231 22.9745 20.2061 24.4087 18.9211L24.5899 18.7521C25.8629 17.5641 27.1789 16.3341 28.4459 15.0961C28.5825 14.9603 28.5912 14.7424 28.4659 14.5961C28.3376 14.4513 28.1191 14.43 27.9651 14.5471C26.57 15.6241 25.1819 16.7471 23.8398 17.8271L23.6215 18.0031C22.3705 18.9931 21.0175 20.0321 19.2427 21.3691L19.0825 21.4881C17.6803 22.5261 16.2321 23.6001 14.7758 24.6101C13.1373 25.7601 11.7762 26.6751 10.5183 27.4711C7.84289 24.642 6.35601 20.8961 6.3639 17.0051C6.35337 12.9495 7.96791 9.05818 10.8478 6.19813C13.7122 3.32259 17.6096 1.71051 21.6715 1.72113C25.7332 1.71024 29.6306 3.32195 32.4951 6.19713C35.3744 9.05747 36.9886 12.9487 36.978 17.0041C36.9887 21.0599 35.3746 24.9515 32.4951 27.8121C29.6305 30.6873 25.7333 32.2993 21.6715 32.2891C18.0559 32.2915 14.5568 31.0134 11.7963 28.6821C13.1393 27.7991 14.4664 26.8851 15.7443 25.9541L15.7453 25.9541Z" id="Path_11" fill="#FFFFFF" stroke="none" />
      <path d="M15.2425 0.178462C15.2425 0.178462 11.1652 -0.471538 9.80409 0.709462L7.30825 2.87546L7.07689 3.07546L6.95971 3.17546C6.95971 3.17546 2.70116 2.89346 1.77974 3.69246L0.831279 4.51646L0.831279 4.51646L0.479738 4.81646L0.100154 5.14646L0 5.23046L1.97304 7.49646C1.3641 8.02446 1.80077 9.52146 2.94854 10.8395C4.0963 12.1575 5.51949 12.7975 6.12843 12.2685L8.10147 14.5345L8.16256 14.4815L8.92974 13.8155L8.92974 13.8155L9.8782 12.9915C10.7996 12.1915 11.1121 7.94246 11.1121 7.94246L11.3485 7.73746L11.5408 7.57146L13.9575 5.47146C15.3156 4.30246 15.2425 0.178462 15.2425 0.178462ZM2.96857 6.64146L3.10678 6.52146L2.96857 6.64146ZM10.5803 8.41346L10.4461 8.52946L10.5803 8.41346Z" transform="translate(27.82092 0.9576705)" id="Path_12" fill="#ED5735" stroke="none" />
    </g>
  </g>
</svg>