<?xml version="1.0" encoding="utf-8"?>
<!-- Generator: Adobe Illustrator 24.2.3, SVG Export Plug-In . SVG Version: 6.00 Build 0)  -->
<svg version="1.0" id="Layer_1" xmlns="http://www.w3.org/2000/svg" xmlns:xlink="http://www.w3.org/1999/xlink" x="0px" y="0px"
	 viewBox="0 0 57 54" style="enable-background:new 0 0 57 54; fill: #2B59C3" xml:space="preserve">
<g>
	<path class="st0" d="M48.6,6h-7.7V3.2c0-0.8-0.7-1.5-1.5-1.5s-1.5,0.7-1.5,1.5V6h-18V3.2c0-0.8-0.7-1.5-1.5-1.5s-1.5,0.7-1.5,1.5V6
		H9.1C5.2,6,2,9.2,2,13.1v32.7C2,49.8,5.2,53,9.1,53h39.4c3.9,0,7.1-3.2,7.1-7.1V13.1C55.7,9.2,52.5,6,48.6,6z M9.1,9h7.7v2.8
		c0,0.8,0.7,1.5,1.5,1.5s1.5-0.7,1.5-1.5V9h18v2.8c0,0.8,0.7,1.5,1.5,1.5s1.5-0.7,1.5-1.5V9h7.7c2.3,0,4.1,1.9,4.1,4.1v3.1H5v-3.1
		C5,10.9,6.9,9,9.1,9z M48.6,50H9.1C6.9,50,5,48.1,5,45.9V19.2h47.7v26.6C52.7,48.1,50.9,50,48.6,50z"/>
	<polygon class="st0" points="30.6,25.8 27.1,25.8 27.1,33.4 20,33.4 20,36.7 27.1,36.7 27.1,44.3 30.6,44.3 30.6,36.7 37.8,36.7 
		37.8,33.4 30.6,33.4 	"/>
</g>
</svg>
