<?xml version="1.0" encoding="utf-8"?>
<!-- Generator: Adobe Illustrator 26.0.2, SVG Export Plug-In . SVG Version: 6.00 Build 0)  -->
<svg version="1.1" id="Layer_1" xmlns="http://www.w3.org/2000/svg" xmlns:xlink="http://www.w3.org/1999/xlink" x="0px" y="0px"
	 viewBox="0 0 239.3 80.7" style="enable-background:new 0 0 239.3 80.7;" xml:space="preserve">
<style type="text/css">
	.st0{fill:#9867F9;}
	.st1{fill:#87D1E6;}
	.st2{fill:#FF6E42;}
	.st3{clip-path:url(#SVGID_00000040552778156508998710000013425097403223187899_);fill:#595959;}
	.st4{clip-path:url(#SVGID_00000003093555842016876880000013606852527786065542_);fill:#595959;}
	.st5{clip-path:url(#SVGID_00000088855929403932554650000003636144427392863667_);fill:#595959;}
	.st6{clip-path:url(#SVGID_00000109733230987654042890000018302575863946863767_);fill:#595959;}
	.st7{fill:#FFCE33;}
</style>
<g>
	<g>
		<g>
			<path class="st0" d="M41.1,3.1C41.1,3.1,41.1,3.1,41.1,3.1L41,77.6c0,0,0,0,0.1,0c20.6,0,37.2-16.7,37.2-37.2
				C78.3,19.8,61.7,3.1,41.1,3.1z"/>
		</g>
	</g>
	<g>
		<rect x="4" y="3.1" class="st1" width="35.9" height="74.5"/>
	</g>
	<polyline class="st2" points="39.8,3.1 4,3.1 39.8,38.9 	"/>
	<polyline class="st2" points="39.8,77.6 4,77.6 39.8,41.8 	"/>
	<g>
		<defs>
			<polygon id="SVGID_1_" points="113.5,40.4 150.8,3.1 113.5,3.1 			"/>
		</defs>
		<clipPath id="SVGID_00000096751209439186301910000014671324309086267777_">
			<use xlink:href="#SVGID_1_"  style="overflow:visible;"/>
		</clipPath>
		
			<circle style="clip-path:url(#SVGID_00000096751209439186301910000014671324309086267777_);fill:#595959;" cx="113.5" cy="40.4" r="37.3"/>
	</g>
	<g>
		<defs>
			<polygon id="SVGID_00000129187942510655138300000017868879436151973007_" points="112.3,40.4 75,77.6 112.3,77.6 			"/>
		</defs>
		<clipPath id="SVGID_00000116920417672988239740000001084763176662177681_">
			<use xlink:href="#SVGID_00000129187942510655138300000017868879436151973007_"  style="overflow:visible;"/>
		</clipPath>
		
			<circle style="clip-path:url(#SVGID_00000116920417672988239740000001084763176662177681_);fill:#595959;" cx="112.3" cy="40.4" r="37.3"/>
	</g>
	<g>
		<g>
			<defs>
				<polygon id="SVGID_00000170969137935553943210000015529131886533385919_" points="175,40.4 212.3,3.1 175,3.1 				"/>
			</defs>
			<clipPath id="SVGID_00000080200505772091215500000008516226886396452001_">
				<use xlink:href="#SVGID_00000170969137935553943210000015529131886533385919_"  style="overflow:visible;"/>
			</clipPath>
			
				<circle style="clip-path:url(#SVGID_00000080200505772091215500000008516226886396452001_);fill:#595959;" cx="175" cy="40.4" r="37.3"/>
		</g>
		<g>
			<defs>
				<polygon id="SVGID_00000072960444565015633970000012493405537769292968_" points="173.8,40.4 136.5,77.6 173.8,77.6 				"/>
			</defs>
			<clipPath id="SVGID_00000147184727197963180060000011728158336460256945_">
				<use xlink:href="#SVGID_00000072960444565015633970000012493405537769292968_"  style="overflow:visible;"/>
			</clipPath>
			
				<circle style="clip-path:url(#SVGID_00000147184727197963180060000011728158336460256945_);fill:#595959;" cx="173.8" cy="40.4" r="37.3"/>
		</g>
	</g>
	<path class="st2" d="M173.8,3.1L173.8,3.1c-15.4,0-28,12.5-28,28s12.5,28,28,28h0V3.1z"/>
	<g>
		<path class="st7" d="M112.3,3.1L112.3,3.1c-15.4,0-28,12.5-28,28s12.5,28,28,28h0V3.1z"/>
	</g>
	<g>
		<path class="st0" d="M113.5,77.6L113.5,77.6c15.4,0,28-12.5,28-28s-12.5-28-28-28h0V77.6z"/>
	</g>
	<g>
		<path class="st1" d="M175,77.6L175,77.6c15.4,0,28-12.5,28-28s-12.5-28-28-28h0V77.6z"/>
	</g>
	<rect x="175" y="38" class="st2" width="60.6" height="21.4"/>
	<g>
		<path d="M183.3,54.3l4.1-12h3.1l4.1,12h-2.8l-0.8-2.9h-4.1l-0.9,2.9H183.3z M187.9,48.2l-0.4,1.3h2.9l-0.4-1.3
			c-0.2-0.6-0.4-1.3-0.5-1.9c-0.2-0.6-0.3-1.3-0.5-1.9h-0.1c-0.2,0.6-0.3,1.3-0.5,1.9C188.2,46.9,188,47.5,187.9,48.2z"/>
		<path d="M201.8,54.6c-1,0-1.9-0.2-2.7-0.5s-1.5-0.7-2.1-1.2l1.3-1.8c0.5,0.4,1.1,0.8,1.7,1.1s1.2,0.4,1.9,0.4
			c0.6,0,1.1-0.1,1.4-0.4c0.3-0.3,0.5-0.6,0.5-1c0-0.5-0.2-0.8-0.5-1c-0.3-0.2-0.7-0.4-1.2-0.6l-1.4-0.5c-0.4-0.2-0.8-0.3-1.2-0.5
			c-0.4-0.2-0.7-0.4-1-0.7c-0.3-0.3-0.5-0.6-0.7-0.9s-0.3-0.7-0.3-1.2c0-0.5,0.1-1,0.3-1.5c0.2-0.4,0.5-0.8,0.9-1.1
			c0.4-0.3,0.9-0.6,1.4-0.7s1.2-0.3,1.8-0.3c0.9,0,1.7,0.2,2.4,0.5c0.7,0.3,1.3,0.7,1.8,1.1l-1.3,1.7c-0.4-0.3-0.9-0.6-1.4-0.8
			s-1-0.3-1.5-0.3c-0.5,0-1,0.1-1.3,0.3c-0.3,0.2-0.5,0.6-0.5,1c0,0.4,0.2,0.7,0.5,0.9s0.7,0.4,1.3,0.6l1.4,0.5
			c0.4,0.2,0.9,0.3,1.2,0.5c0.4,0.2,0.7,0.4,1,0.7c0.3,0.3,0.5,0.6,0.7,0.9c0.2,0.4,0.2,0.8,0.2,1.3c0,0.5-0.1,1-0.3,1.5
			c-0.2,0.4-0.5,0.8-0.9,1.2c-0.4,0.3-0.9,0.6-1.5,0.8S202.6,54.6,201.8,54.6z"/>
		<path d="M210.2,54.3v-12h2.7v12H210.2z"/>
		<path d="M216,54.3l4.1-12h3.1l4.1,12h-2.8l-0.8-2.9h-4.1l-0.9,2.9H216z M220.5,48.2l-0.4,1.3h2.9l-0.4-1.3
			c-0.2-0.6-0.4-1.3-0.5-1.9c-0.2-0.6-0.3-1.3-0.5-1.9h-0.1c-0.2,0.6-0.3,1.3-0.5,1.9C220.8,46.9,220.7,47.5,220.5,48.2z"/>
	</g>
</g>
</svg>
